<?xml version="1.0" encoding="utf-8"?>
<!-- Generator: Adobe Illustrator 28.1.0, SVG Export Plug-In . SVG Version: 6.00 Build 0)  -->
<svg version="1.1" id="Layer_1" xmlns="http://www.w3.org/2000/svg" xmlns:xlink="http://www.w3.org/1999/xlink" x="0px" y="0px"
	 viewBox="0 0 512 512" style="enable-background:new 0 0 512 512;" xml:space="preserve">
<style type="text/css">
	.st0{fill:#FFFFFF;}
	.st1{fill-rule:evenodd;clip-rule:evenodd;fill:#FFFFFF;filter:url(#Adobe_OpacityMaskFilter);}
	.st2{mask:url(#mask0_2945_1514_00000172434446154022495040000016032496264834680251_);}
	.st3{fill-rule:evenodd;clip-rule:evenodd;fill:#25D366;}
</style>
<ellipse class="st0" cx="257.55" cy="255.91" rx="244.19" ry="243.04"/>
<defs>
	<filter id="Adobe_OpacityMaskFilter" filterUnits="userSpaceOnUse" x="13.36" y="12.87" width="488.38" height="486.26">
		<feColorMatrix  type="matrix" values="1 0 0 0 0  0 1 0 0 0  0 0 1 0 0  0 0 0 1 0"/>
	</filter>
</defs>
<mask maskUnits="userSpaceOnUse" x="13.36" y="12.87" width="488.38" height="486.26" id="mask0_2945_1514_00000172434446154022495040000016032496264834680251_">
	<path class="st1" d="M13.36,12.87h488.37v486.25H13.36V12.87z"/>
</mask>
<g class="st2">
	<path class="st3" d="M107.96,411.93c24.25-7.69,45.76-14.07,66.97-21.39c9.14-3.15,16.89-2.97,26.06,0.89
		c106.18,44.83,218.91-38,205.03-151.68c-6.72-55.21-37.38-95.61-89.6-116.97c-52.11-21.3-101.99-14.07-146.51,19.73
		c-55.45,42.12-71.93,117.66-40.85,180.11c3.56,7.21,4.6,13.32,1.61,21.33C122.73,365.29,116.12,387.14,107.96,411.93z M13.4,255.51
		C13.37,122.67,121.33,12.53,258.13,12.87c136.08,0.31,246.4,112.54,243.56,246.36c-2.9,135.93-111.84,241.32-246.74,239.89
		C119.92,497.66,11.13,386.32,13.4,255.51z"/>
</g>
<path class="st3" d="M183.82,220.67l1.9,1.69c1.49,6.26,2.07,12.95,4.63,18.79c19.68,44.98,51.88,76.37,100.4,89.09
	c19.82,5.2,41.74-6.35,45.02-23.82c0.86-4.63-1.15-12.15-4.6-14.75c-7.67-5.86-16.83-10.09-25.94-13.61
	c-3.22-1.26-8.42,0.77-12.01,2.69c-3.02,1.57-5.26,4.92-7.41,7.81c-4.17,5.72-8.47,6.12-14.85,2.83
	c-17.29-9.01-30.45-22.07-41.08-37.97c-3.36-5.03-4.48-9.98,0.95-14.41c9.19-7.49,9.22-16.38,4.42-26.25
	c-2.24-4.57-3.73-9.44-5.52-14.18c-5.37-14.35-20.14-18.3-30.28-6.52C192.53,200.11,188.91,211.04,183.82,220.67z M148.74,371.88
	c3.85-11.84,6.61-22.25,10.66-32.14c3.13-7.61,1.81-13.38-2.21-20.3c-42.66-73.05-2.53-162.21,80.5-179.53
	c67.25-14.01,133.73,35.28,142.35,103.76c10.72,85.38-75.55,161.58-164.84,124.69c-18.79-7.75-33.84-8.43-51.14-1.14
	C159.8,369.02,155.17,369.96,148.74,371.88z"/>
</svg>
